<mxfile host="app.diagrams.net" modified="2021-05-19T16:09:53.753Z" agent="5.0 (X11; Linux x86_64) AppleWebKit/537.36 (KHTML, like Gecko) Chrome/90.0.4430.212 Safari/537.36" etag="U7bx1uLzZ95bXzJ85njf" version="14.6.13" type="github">
  <diagram id="C5RBs43oDa-KdzZeNtuy" name="Page-1">
    <mxGraphModel dx="3384" dy="2101" grid="1" gridSize="10" guides="1" tooltips="1" connect="1" arrows="1" fold="1" page="1" pageScale="1" pageWidth="827" pageHeight="1169" math="0" shadow="0">
      <root>
        <mxCell id="WIyWlLk6GJQsqaUBKTNV-0" />
        <mxCell id="WIyWlLk6GJQsqaUBKTNV-1" parent="WIyWlLk6GJQsqaUBKTNV-0" />
        <mxCell id="_ZYvlDvBcddFAeTX4_bz-0" value="EuropianSocketInterface" style="swimlane;fontStyle=3;align=center;verticalAlign=top;childLayout=stackLayout;horizontal=1;startSize=26;horizontalStack=0;resizeParent=1;resizeParentMax=0;resizeLast=0;collapsible=1;marginBottom=0;fillColor=#fff2cc;strokeColor=#d6b656;" vertex="1" parent="WIyWlLk6GJQsqaUBKTNV-1">
          <mxGeometry x="350" y="160" width="160" height="100" as="geometry" />
        </mxCell>
        <mxCell id="_ZYvlDvBcddFAeTX4_bz-2" value="" style="line;strokeWidth=1;fillColor=#fff2cc;align=left;verticalAlign=middle;spacingTop=-1;spacingLeft=3;spacingRight=3;rotatable=0;labelPosition=right;points=[];portConstraint=eastwest;strokeColor=#d6b656;" vertex="1" parent="_ZYvlDvBcddFAeTX4_bz-0">
          <mxGeometry y="26" width="160" height="8" as="geometry" />
        </mxCell>
        <mxCell id="_ZYvlDvBcddFAeTX4_bz-3" value="+ voltage()&#xa;+ neutral()&#xa;+ live()&#xa;+ earth()" style="text;strokeColor=#d6b656;fillColor=#fff2cc;align=left;verticalAlign=top;spacingLeft=4;spacingRight=4;overflow=hidden;rotatable=0;points=[[0,0.5],[1,0.5]];portConstraint=eastwest;" vertex="1" parent="_ZYvlDvBcddFAeTX4_bz-0">
          <mxGeometry y="34" width="160" height="66" as="geometry" />
        </mxCell>
        <mxCell id="_ZYvlDvBcddFAeTX4_bz-4" value="EuropianSocket" style="swimlane;fontStyle=1;align=center;verticalAlign=top;childLayout=stackLayout;horizontal=1;startSize=26;horizontalStack=0;resizeParent=1;resizeParentMax=0;resizeLast=0;collapsible=1;marginBottom=0;fillColor=#fff2cc;strokeColor=#d6b656;" vertex="1" parent="WIyWlLk6GJQsqaUBKTNV-1">
          <mxGeometry x="350" y="340" width="160" height="120" as="geometry" />
        </mxCell>
        <mxCell id="_ZYvlDvBcddFAeTX4_bz-5" value="" style="line;strokeWidth=1;fillColor=#fff2cc;align=left;verticalAlign=middle;spacingTop=-1;spacingLeft=3;spacingRight=3;rotatable=0;labelPosition=right;points=[];portConstraint=eastwest;strokeColor=#d6b656;" vertex="1" parent="_ZYvlDvBcddFAeTX4_bz-4">
          <mxGeometry y="26" width="160" height="8" as="geometry" />
        </mxCell>
        <mxCell id="_ZYvlDvBcddFAeTX4_bz-6" value="- init()&#xa;+ voltage()&#xa;+ neutral()&#xa;+ live()&#xa;+ earth()" style="text;strokeColor=#d6b656;fillColor=#fff2cc;align=left;verticalAlign=top;spacingLeft=4;spacingRight=4;overflow=hidden;rotatable=0;points=[[0,0.5],[1,0.5]];portConstraint=eastwest;" vertex="1" parent="_ZYvlDvBcddFAeTX4_bz-4">
          <mxGeometry y="34" width="160" height="86" as="geometry" />
        </mxCell>
        <mxCell id="_ZYvlDvBcddFAeTX4_bz-7" value="USASocketInterface" style="swimlane;fontStyle=1;align=center;verticalAlign=top;childLayout=stackLayout;horizontal=1;startSize=26;horizontalStack=0;resizeParent=1;resizeParentMax=0;resizeLast=0;collapsible=1;marginBottom=0;fillColor=#fff2cc;strokeColor=#d6b656;" vertex="1" parent="WIyWlLk6GJQsqaUBKTNV-1">
          <mxGeometry x="610" y="160" width="160" height="100" as="geometry" />
        </mxCell>
        <mxCell id="_ZYvlDvBcddFAeTX4_bz-8" value="" style="line;strokeWidth=1;fillColor=#fff2cc;align=left;verticalAlign=middle;spacingTop=-1;spacingLeft=3;spacingRight=3;rotatable=0;labelPosition=right;points=[];portConstraint=eastwest;strokeColor=#d6b656;" vertex="1" parent="_ZYvlDvBcddFAeTX4_bz-7">
          <mxGeometry y="26" width="160" height="8" as="geometry" />
        </mxCell>
        <mxCell id="_ZYvlDvBcddFAeTX4_bz-9" value="+ voltage()&#xa;+ neutral()&#xa;+ live()" style="text;strokeColor=#d6b656;fillColor=#fff2cc;align=left;verticalAlign=top;spacingLeft=4;spacingRight=4;overflow=hidden;rotatable=0;points=[[0,0.5],[1,0.5]];portConstraint=eastwest;" vertex="1" parent="_ZYvlDvBcddFAeTX4_bz-7">
          <mxGeometry y="34" width="160" height="66" as="geometry" />
        </mxCell>
        <mxCell id="_ZYvlDvBcddFAeTX4_bz-13" value="Adapter" style="swimlane;fontStyle=1;align=center;verticalAlign=top;childLayout=stackLayout;horizontal=1;startSize=26;horizontalStack=0;resizeParent=1;resizeParentMax=0;resizeLast=0;collapsible=1;marginBottom=0;fillColor=#fff2cc;strokeColor=#d6b656;" vertex="1" parent="WIyWlLk6GJQsqaUBKTNV-1">
          <mxGeometry x="610" y="340" width="160" height="120" as="geometry" />
        </mxCell>
        <mxCell id="_ZYvlDvBcddFAeTX4_bz-14" value="- socket" style="text;strokeColor=#d6b656;fillColor=#fff2cc;align=left;verticalAlign=top;spacingLeft=4;spacingRight=4;overflow=hidden;rotatable=0;points=[[0,0.5],[1,0.5]];portConstraint=eastwest;" vertex="1" parent="_ZYvlDvBcddFAeTX4_bz-13">
          <mxGeometry y="26" width="160" height="26" as="geometry" />
        </mxCell>
        <mxCell id="_ZYvlDvBcddFAeTX4_bz-15" value="" style="line;strokeWidth=1;fillColor=#fff2cc;align=left;verticalAlign=middle;spacingTop=-1;spacingLeft=3;spacingRight=3;rotatable=0;labelPosition=right;points=[];portConstraint=eastwest;strokeColor=#d6b656;" vertex="1" parent="_ZYvlDvBcddFAeTX4_bz-13">
          <mxGeometry y="52" width="160" height="8" as="geometry" />
        </mxCell>
        <mxCell id="_ZYvlDvBcddFAeTX4_bz-16" value="+ voltage()&#xa;+ neutral()&#xa;+ live()" style="text;strokeColor=#d6b656;fillColor=#fff2cc;align=left;verticalAlign=top;spacingLeft=4;spacingRight=4;overflow=hidden;rotatable=0;points=[[0,0.5],[1,0.5]];portConstraint=eastwest;" vertex="1" parent="_ZYvlDvBcddFAeTX4_bz-13">
          <mxGeometry y="60" width="160" height="60" as="geometry" />
        </mxCell>
        <mxCell id="_ZYvlDvBcddFAeTX4_bz-17" value="Fridge" style="swimlane;fontStyle=1;align=center;verticalAlign=top;childLayout=stackLayout;horizontal=1;startSize=26;horizontalStack=0;resizeParent=1;resizeParentMax=0;resizeLast=0;collapsible=1;marginBottom=0;fillColor=#fff2cc;strokeColor=#d6b656;" vertex="1" parent="WIyWlLk6GJQsqaUBKTNV-1">
          <mxGeometry x="490" width="160" height="100" as="geometry" />
        </mxCell>
        <mxCell id="_ZYvlDvBcddFAeTX4_bz-18" value="- power" style="text;strokeColor=#d6b656;fillColor=#fff2cc;align=left;verticalAlign=top;spacingLeft=4;spacingRight=4;overflow=hidden;rotatable=0;points=[[0,0.5],[1,0.5]];portConstraint=eastwest;" vertex="1" parent="_ZYvlDvBcddFAeTX4_bz-17">
          <mxGeometry y="26" width="160" height="26" as="geometry" />
        </mxCell>
        <mxCell id="_ZYvlDvBcddFAeTX4_bz-19" value="" style="line;strokeWidth=1;fillColor=#fff2cc;align=left;verticalAlign=middle;spacingTop=-1;spacingLeft=3;spacingRight=3;rotatable=0;labelPosition=right;points=[];portConstraint=eastwest;strokeColor=#d6b656;" vertex="1" parent="_ZYvlDvBcddFAeTX4_bz-17">
          <mxGeometry y="52" width="160" height="8" as="geometry" />
        </mxCell>
        <mxCell id="_ZYvlDvBcddFAeTX4_bz-20" value="- init(power)&#xa;+ on()" style="text;strokeColor=#d6b656;fillColor=#fff2cc;align=left;verticalAlign=top;spacingLeft=4;spacingRight=4;overflow=hidden;rotatable=0;points=[[0,0.5],[1,0.5]];portConstraint=eastwest;" vertex="1" parent="_ZYvlDvBcddFAeTX4_bz-17">
          <mxGeometry y="60" width="160" height="40" as="geometry" />
        </mxCell>
        <mxCell id="_ZYvlDvBcddFAeTX4_bz-21" value="User" style="html=1;fillColor=#fff2cc;strokeColor=#d6b656;" vertex="1" parent="WIyWlLk6GJQsqaUBKTNV-1">
          <mxGeometry x="515" y="-140" width="110" height="50" as="geometry" />
        </mxCell>
        <mxCell id="_ZYvlDvBcddFAeTX4_bz-25" value="Extends" style="endArrow=block;endSize=16;endFill=0;html=1;exitX=0.5;exitY=0;exitDx=0;exitDy=0;fillColor=#fff2cc;strokeColor=#d6b656;" edge="1" parent="WIyWlLk6GJQsqaUBKTNV-1" source="_ZYvlDvBcddFAeTX4_bz-4">
          <mxGeometry width="160" relative="1" as="geometry">
            <mxPoint x="480" y="290" as="sourcePoint" />
            <mxPoint x="430" y="263" as="targetPoint" />
          </mxGeometry>
        </mxCell>
        <mxCell id="_ZYvlDvBcddFAeTX4_bz-26" value="Extends" style="endArrow=block;endSize=16;endFill=0;html=1;exitX=0.5;exitY=0;exitDx=0;exitDy=0;fillColor=#fff2cc;strokeColor=#d6b656;" edge="1" parent="WIyWlLk6GJQsqaUBKTNV-1" source="_ZYvlDvBcddFAeTX4_bz-13" target="_ZYvlDvBcddFAeTX4_bz-9">
          <mxGeometry width="160" relative="1" as="geometry">
            <mxPoint x="480" y="290" as="sourcePoint" />
            <mxPoint x="680" y="270" as="targetPoint" />
          </mxGeometry>
        </mxCell>
        <mxCell id="_ZYvlDvBcddFAeTX4_bz-27" style="edgeStyle=orthogonalEdgeStyle;rounded=0;orthogonalLoop=1;jettySize=auto;html=1;fillColor=#fff2cc;strokeColor=#d6b656;" edge="1" parent="WIyWlLk6GJQsqaUBKTNV-1" source="_ZYvlDvBcddFAeTX4_bz-19" target="_ZYvlDvBcddFAeTX4_bz-7">
          <mxGeometry relative="1" as="geometry" />
        </mxCell>
        <mxCell id="_ZYvlDvBcddFAeTX4_bz-30" value="Create" style="endArrow=open;endSize=12;dashed=1;html=1;exitX=0;exitY=0.5;exitDx=0;exitDy=0;entryX=0.5;entryY=0;entryDx=0;entryDy=0;fillColor=#fff2cc;strokeColor=#d6b656;" edge="1" parent="WIyWlLk6GJQsqaUBKTNV-1" source="_ZYvlDvBcddFAeTX4_bz-21" target="_ZYvlDvBcddFAeTX4_bz-0">
          <mxGeometry width="160" relative="1" as="geometry">
            <mxPoint x="440" y="150" as="sourcePoint" />
            <mxPoint x="600" y="150" as="targetPoint" />
            <Array as="points">
              <mxPoint x="430" y="-115" />
            </Array>
          </mxGeometry>
        </mxCell>
        <mxCell id="_ZYvlDvBcddFAeTX4_bz-31" value="Use" style="endArrow=open;endSize=12;dashed=1;html=1;exitX=0.5;exitY=1;exitDx=0;exitDy=0;entryX=0.5;entryY=0;entryDx=0;entryDy=0;fillColor=#fff2cc;strokeColor=#d6b656;" edge="1" parent="WIyWlLk6GJQsqaUBKTNV-1" source="_ZYvlDvBcddFAeTX4_bz-21" target="_ZYvlDvBcddFAeTX4_bz-17">
          <mxGeometry width="160" relative="1" as="geometry">
            <mxPoint x="440" y="150" as="sourcePoint" />
            <mxPoint x="600" y="150" as="targetPoint" />
          </mxGeometry>
        </mxCell>
        <mxCell id="_ZYvlDvBcddFAeTX4_bz-32" value="Use" style="endArrow=open;endSize=12;dashed=1;html=1;exitX=1;exitY=0.5;exitDx=0;exitDy=0;entryX=0.5;entryY=0;entryDx=0;entryDy=0;fillColor=#fff2cc;strokeColor=#d6b656;" edge="1" parent="WIyWlLk6GJQsqaUBKTNV-1" source="_ZYvlDvBcddFAeTX4_bz-21" target="_ZYvlDvBcddFAeTX4_bz-7">
          <mxGeometry width="160" relative="1" as="geometry">
            <mxPoint x="440" y="150" as="sourcePoint" />
            <mxPoint x="600" y="150" as="targetPoint" />
            <Array as="points">
              <mxPoint x="690" y="-115" />
            </Array>
          </mxGeometry>
        </mxCell>
        <mxCell id="_ZYvlDvBcddFAeTX4_bz-33" value="&lt;font style=&quot;font-size: 24px&quot;&gt;Adapter&lt;/font&gt;" style="html=1;fillColor=#fff2cc;strokeColor=#d6b656;" vertex="1" parent="WIyWlLk6GJQsqaUBKTNV-1">
          <mxGeometry x="515" y="-270" width="110" height="50" as="geometry" />
        </mxCell>
        <mxCell id="_ZYvlDvBcddFAeTX4_bz-34" value="Adapter" style="shape=umlFrame;whiteSpace=wrap;html=1;" vertex="1" parent="WIyWlLk6GJQsqaUBKTNV-1">
          <mxGeometry x="290" y="-290" width="530" height="780" as="geometry" />
        </mxCell>
        <mxCell id="_ZYvlDvBcddFAeTX4_bz-35" value="AbstractInterface" style="swimlane;fontStyle=3;align=center;verticalAlign=top;childLayout=stackLayout;horizontal=1;startSize=26;horizontalStack=0;resizeParent=1;resizeParentMax=0;resizeLast=0;collapsible=1;marginBottom=0;fillColor=#dae8fc;strokeColor=#6c8ebf;" vertex="1" parent="WIyWlLk6GJQsqaUBKTNV-1">
          <mxGeometry x="-150" y="5" width="160" height="60" as="geometry" />
        </mxCell>
        <mxCell id="_ZYvlDvBcddFAeTX4_bz-37" value="" style="line;strokeWidth=1;fillColor=#dae8fc;align=left;verticalAlign=middle;spacingTop=-1;spacingLeft=3;spacingRight=3;rotatable=0;labelPosition=right;points=[];portConstraint=eastwest;strokeColor=#6c8ebf;" vertex="1" parent="_ZYvlDvBcddFAeTX4_bz-35">
          <mxGeometry y="26" width="160" height="8" as="geometry" />
        </mxCell>
        <mxCell id="_ZYvlDvBcddFAeTX4_bz-38" value="+ functional()" style="text;strokeColor=#6c8ebf;fillColor=#dae8fc;align=left;verticalAlign=top;spacingLeft=4;spacingRight=4;overflow=hidden;rotatable=0;points=[[0,0.5],[1,0.5]];portConstraint=eastwest;" vertex="1" parent="_ZYvlDvBcddFAeTX4_bz-35">
          <mxGeometry y="34" width="160" height="26" as="geometry" />
        </mxCell>
        <mxCell id="_ZYvlDvBcddFAeTX4_bz-39" value="Bridge" style="swimlane;fontStyle=1;align=center;verticalAlign=top;childLayout=stackLayout;horizontal=1;startSize=26;horizontalStack=0;resizeParent=1;resizeParentMax=0;resizeLast=0;collapsible=1;marginBottom=0;fillColor=#dae8fc;strokeColor=#6c8ebf;" vertex="1" parent="WIyWlLk6GJQsqaUBKTNV-1">
          <mxGeometry x="-150" y="120" width="160" height="60" as="geometry" />
        </mxCell>
        <mxCell id="_ZYvlDvBcddFAeTX4_bz-40" value="" style="line;strokeWidth=1;fillColor=#dae8fc;align=left;verticalAlign=middle;spacingTop=-1;spacingLeft=3;spacingRight=3;rotatable=0;labelPosition=right;points=[];portConstraint=eastwest;strokeColor=#6c8ebf;" vertex="1" parent="_ZYvlDvBcddFAeTX4_bz-39">
          <mxGeometry y="26" width="160" height="8" as="geometry" />
        </mxCell>
        <mxCell id="_ZYvlDvBcddFAeTX4_bz-41" value="- init()" style="text;strokeColor=#6c8ebf;fillColor=#dae8fc;align=left;verticalAlign=top;spacingLeft=4;spacingRight=4;overflow=hidden;rotatable=0;points=[[0,0.5],[1,0.5]];portConstraint=eastwest;" vertex="1" parent="_ZYvlDvBcddFAeTX4_bz-39">
          <mxGeometry y="34" width="160" height="26" as="geometry" />
        </mxCell>
        <mxCell id="_ZYvlDvBcddFAeTX4_bz-42" value="Interface1" style="swimlane;fontStyle=1;align=center;verticalAlign=top;childLayout=stackLayout;horizontal=1;startSize=26;horizontalStack=0;resizeParent=1;resizeParentMax=0;resizeLast=0;collapsible=1;marginBottom=0;fillColor=#dae8fc;strokeColor=#6c8ebf;" vertex="1" parent="WIyWlLk6GJQsqaUBKTNV-1">
          <mxGeometry x="-40" y="260" width="160" height="80" as="geometry" />
        </mxCell>
        <mxCell id="_ZYvlDvBcddFAeTX4_bz-43" value="" style="line;strokeWidth=1;fillColor=#dae8fc;align=left;verticalAlign=middle;spacingTop=-1;spacingLeft=3;spacingRight=3;rotatable=0;labelPosition=right;points=[];portConstraint=eastwest;strokeColor=#6c8ebf;" vertex="1" parent="_ZYvlDvBcddFAeTX4_bz-42">
          <mxGeometry y="26" width="160" height="8" as="geometry" />
        </mxCell>
        <mxCell id="_ZYvlDvBcddFAeTX4_bz-44" value="- init(obj)&#xa;+ functional()" style="text;strokeColor=#6c8ebf;fillColor=#dae8fc;align=left;verticalAlign=top;spacingLeft=4;spacingRight=4;overflow=hidden;rotatable=0;points=[[0,0.5],[1,0.5]];portConstraint=eastwest;" vertex="1" parent="_ZYvlDvBcddFAeTX4_bz-42">
          <mxGeometry y="34" width="160" height="46" as="geometry" />
        </mxCell>
        <mxCell id="_ZYvlDvBcddFAeTX4_bz-45" value="Interface2" style="swimlane;fontStyle=1;align=center;verticalAlign=top;childLayout=stackLayout;horizontal=1;startSize=26;horizontalStack=0;resizeParent=1;resizeParentMax=0;resizeLast=0;collapsible=1;marginBottom=0;fillColor=#dae8fc;strokeColor=#6c8ebf;" vertex="1" parent="WIyWlLk6GJQsqaUBKTNV-1">
          <mxGeometry x="-260" y="260" width="160" height="80" as="geometry" />
        </mxCell>
        <mxCell id="_ZYvlDvBcddFAeTX4_bz-46" value="" style="line;strokeWidth=1;fillColor=#dae8fc;align=left;verticalAlign=middle;spacingTop=-1;spacingLeft=3;spacingRight=3;rotatable=0;labelPosition=right;points=[];portConstraint=eastwest;strokeColor=#6c8ebf;" vertex="1" parent="_ZYvlDvBcddFAeTX4_bz-45">
          <mxGeometry y="26" width="160" height="8" as="geometry" />
        </mxCell>
        <mxCell id="_ZYvlDvBcddFAeTX4_bz-47" value="- init(obj)&#xa;+ functional()" style="text;strokeColor=#6c8ebf;fillColor=#dae8fc;align=left;verticalAlign=top;spacingLeft=4;spacingRight=4;overflow=hidden;rotatable=0;points=[[0,0.5],[1,0.5]];portConstraint=eastwest;" vertex="1" parent="_ZYvlDvBcddFAeTX4_bz-45">
          <mxGeometry y="34" width="160" height="46" as="geometry" />
        </mxCell>
        <mxCell id="_ZYvlDvBcddFAeTX4_bz-48" value="ImplementationInterface" style="swimlane;fontStyle=3;align=center;verticalAlign=top;childLayout=stackLayout;horizontal=1;startSize=26;horizontalStack=0;resizeParent=1;resizeParentMax=0;resizeLast=0;collapsible=1;marginBottom=0;fillColor=#dae8fc;strokeColor=#6c8ebf;" vertex="1" parent="WIyWlLk6GJQsqaUBKTNV-1">
          <mxGeometry x="-570" y="7" width="160" height="60" as="geometry" />
        </mxCell>
        <mxCell id="_ZYvlDvBcddFAeTX4_bz-50" value="" style="line;strokeWidth=1;fillColor=#dae8fc;align=left;verticalAlign=middle;spacingTop=-1;spacingLeft=3;spacingRight=3;rotatable=0;labelPosition=right;points=[];portConstraint=eastwest;strokeColor=#6c8ebf;" vertex="1" parent="_ZYvlDvBcddFAeTX4_bz-48">
          <mxGeometry y="26" width="160" height="8" as="geometry" />
        </mxCell>
        <mxCell id="_ZYvlDvBcddFAeTX4_bz-51" value="+ functionality()" style="text;strokeColor=#6c8ebf;fillColor=#dae8fc;align=left;verticalAlign=top;spacingLeft=4;spacingRight=4;overflow=hidden;rotatable=0;points=[[0,0.5],[1,0.5]];portConstraint=eastwest;" vertex="1" parent="_ZYvlDvBcddFAeTX4_bz-48">
          <mxGeometry y="34" width="160" height="26" as="geometry" />
        </mxCell>
        <mxCell id="_ZYvlDvBcddFAeTX4_bz-52" value="ImplementationWindows" style="swimlane;fontStyle=1;align=center;verticalAlign=top;childLayout=stackLayout;horizontal=1;startSize=26;horizontalStack=0;resizeParent=1;resizeParentMax=0;resizeLast=0;collapsible=1;marginBottom=0;fillColor=#dae8fc;strokeColor=#6c8ebf;" vertex="1" parent="WIyWlLk6GJQsqaUBKTNV-1">
          <mxGeometry x="-450" y="130" width="160" height="60" as="geometry" />
        </mxCell>
        <mxCell id="_ZYvlDvBcddFAeTX4_bz-53" value="" style="line;strokeWidth=1;fillColor=#dae8fc;align=left;verticalAlign=middle;spacingTop=-1;spacingLeft=3;spacingRight=3;rotatable=0;labelPosition=right;points=[];portConstraint=eastwest;strokeColor=#6c8ebf;" vertex="1" parent="_ZYvlDvBcddFAeTX4_bz-52">
          <mxGeometry y="26" width="160" height="8" as="geometry" />
        </mxCell>
        <mxCell id="_ZYvlDvBcddFAeTX4_bz-54" value="+ functionality()" style="text;strokeColor=#6c8ebf;fillColor=#dae8fc;align=left;verticalAlign=top;spacingLeft=4;spacingRight=4;overflow=hidden;rotatable=0;points=[[0,0.5],[1,0.5]];portConstraint=eastwest;" vertex="1" parent="_ZYvlDvBcddFAeTX4_bz-52">
          <mxGeometry y="34" width="160" height="26" as="geometry" />
        </mxCell>
        <mxCell id="_ZYvlDvBcddFAeTX4_bz-55" value="ImplementationLinux" style="swimlane;fontStyle=1;align=center;verticalAlign=top;childLayout=stackLayout;horizontal=1;startSize=26;horizontalStack=0;resizeParent=1;resizeParentMax=0;resizeLast=0;collapsible=1;marginBottom=0;fillColor=#dae8fc;strokeColor=#6c8ebf;" vertex="1" parent="WIyWlLk6GJQsqaUBKTNV-1">
          <mxGeometry x="-720" y="130" width="160" height="60" as="geometry" />
        </mxCell>
        <mxCell id="_ZYvlDvBcddFAeTX4_bz-56" value="" style="line;strokeWidth=1;fillColor=#dae8fc;align=left;verticalAlign=middle;spacingTop=-1;spacingLeft=3;spacingRight=3;rotatable=0;labelPosition=right;points=[];portConstraint=eastwest;strokeColor=#6c8ebf;" vertex="1" parent="_ZYvlDvBcddFAeTX4_bz-55">
          <mxGeometry y="26" width="160" height="8" as="geometry" />
        </mxCell>
        <mxCell id="_ZYvlDvBcddFAeTX4_bz-57" value="+ functionality()" style="text;strokeColor=#6c8ebf;fillColor=#dae8fc;align=left;verticalAlign=top;spacingLeft=4;spacingRight=4;overflow=hidden;rotatable=0;points=[[0,0.5],[1,0.5]];portConstraint=eastwest;" vertex="1" parent="_ZYvlDvBcddFAeTX4_bz-55">
          <mxGeometry y="34" width="160" height="26" as="geometry" />
        </mxCell>
        <mxCell id="_ZYvlDvBcddFAeTX4_bz-58" value="" style="endArrow=block;endSize=16;endFill=0;html=1;entryX=0.536;entryY=1.046;entryDx=0;entryDy=0;entryPerimeter=0;exitX=0.5;exitY=0;exitDx=0;exitDy=0;fillColor=#dae8fc;strokeColor=#6c8ebf;" edge="1" parent="WIyWlLk6GJQsqaUBKTNV-1" source="_ZYvlDvBcddFAeTX4_bz-52" target="_ZYvlDvBcddFAeTX4_bz-51">
          <mxGeometry width="160" relative="1" as="geometry">
            <mxPoint x="-370" y="130" as="sourcePoint" />
            <mxPoint x="-210" y="130" as="targetPoint" />
            <Array as="points">
              <mxPoint x="-370" y="100" />
              <mxPoint x="-430" y="100" />
              <mxPoint x="-484" y="100" />
            </Array>
          </mxGeometry>
        </mxCell>
        <mxCell id="_ZYvlDvBcddFAeTX4_bz-59" value="" style="endArrow=block;endSize=16;endFill=0;html=1;exitX=0.5;exitY=0;exitDx=0;exitDy=0;entryX=0.536;entryY=1.022;entryDx=0;entryDy=0;entryPerimeter=0;fillColor=#dae8fc;strokeColor=#6c8ebf;" edge="1" parent="WIyWlLk6GJQsqaUBKTNV-1" source="_ZYvlDvBcddFAeTX4_bz-55" target="_ZYvlDvBcddFAeTX4_bz-51">
          <mxGeometry width="160" relative="1" as="geometry">
            <mxPoint x="-360" y="140" as="sourcePoint" />
            <mxPoint x="-480" y="70" as="targetPoint" />
            <Array as="points">
              <mxPoint x="-640" y="100" />
              <mxPoint x="-484" y="100" />
            </Array>
          </mxGeometry>
        </mxCell>
        <mxCell id="_ZYvlDvBcddFAeTX4_bz-60" value="Extends" style="endArrow=block;endSize=16;endFill=0;html=1;exitX=0.5;exitY=0;exitDx=0;exitDy=0;fillColor=#dae8fc;strokeColor=#6c8ebf;" edge="1" parent="WIyWlLk6GJQsqaUBKTNV-1" source="_ZYvlDvBcddFAeTX4_bz-45">
          <mxGeometry width="160" relative="1" as="geometry">
            <mxPoint x="-310" y="180" as="sourcePoint" />
            <mxPoint x="-70" y="180" as="targetPoint" />
            <Array as="points">
              <mxPoint x="-180" y="220" />
              <mxPoint x="-70" y="220" />
            </Array>
          </mxGeometry>
        </mxCell>
        <mxCell id="_ZYvlDvBcddFAeTX4_bz-61" value="Extends" style="endArrow=block;endSize=16;endFill=0;html=1;exitX=0.5;exitY=0;exitDx=0;exitDy=0;entryX=0.5;entryY=1;entryDx=0;entryDy=0;fillColor=#dae8fc;strokeColor=#6c8ebf;" edge="1" parent="WIyWlLk6GJQsqaUBKTNV-1" source="_ZYvlDvBcddFAeTX4_bz-42" target="_ZYvlDvBcddFAeTX4_bz-39">
          <mxGeometry width="160" relative="1" as="geometry">
            <mxPoint x="-310" y="180" as="sourcePoint" />
            <mxPoint x="-150" y="180" as="targetPoint" />
            <Array as="points">
              <mxPoint x="40" y="220" />
              <mxPoint x="-70" y="220" />
            </Array>
          </mxGeometry>
        </mxCell>
        <mxCell id="_ZYvlDvBcddFAeTX4_bz-62" value="" style="endArrow=block;endSize=16;endFill=0;html=1;exitX=0.5;exitY=0;exitDx=0;exitDy=0;fillColor=#dae8fc;strokeColor=#6c8ebf;" edge="1" parent="WIyWlLk6GJQsqaUBKTNV-1" source="_ZYvlDvBcddFAeTX4_bz-39">
          <mxGeometry width="160" relative="1" as="geometry">
            <mxPoint x="-310" y="180" as="sourcePoint" />
            <mxPoint x="-70" y="67" as="targetPoint" />
          </mxGeometry>
        </mxCell>
        <mxCell id="_ZYvlDvBcddFAeTX4_bz-64" style="edgeStyle=orthogonalEdgeStyle;rounded=0;orthogonalLoop=1;jettySize=auto;html=1;entryX=0.5;entryY=0;entryDx=0;entryDy=0;fillColor=#dae8fc;strokeColor=#6c8ebf;" edge="1" parent="WIyWlLk6GJQsqaUBKTNV-1" source="_ZYvlDvBcddFAeTX4_bz-63" target="_ZYvlDvBcddFAeTX4_bz-48">
          <mxGeometry relative="1" as="geometry" />
        </mxCell>
        <mxCell id="_ZYvlDvBcddFAeTX4_bz-65" style="edgeStyle=orthogonalEdgeStyle;rounded=0;orthogonalLoop=1;jettySize=auto;html=1;entryX=0.5;entryY=0;entryDx=0;entryDy=0;fillColor=#dae8fc;strokeColor=#6c8ebf;" edge="1" parent="WIyWlLk6GJQsqaUBKTNV-1" source="_ZYvlDvBcddFAeTX4_bz-63" target="_ZYvlDvBcddFAeTX4_bz-35">
          <mxGeometry relative="1" as="geometry" />
        </mxCell>
        <mxCell id="_ZYvlDvBcddFAeTX4_bz-63" value="User" style="html=1;fillColor=#dae8fc;strokeColor=#6c8ebf;" vertex="1" parent="WIyWlLk6GJQsqaUBKTNV-1">
          <mxGeometry x="-340" y="-150" width="110" height="50" as="geometry" />
        </mxCell>
        <mxCell id="_ZYvlDvBcddFAeTX4_bz-67" value="Use" style="endArrow=open;endSize=12;dashed=1;html=1;exitX=0;exitY=0.5;exitDx=0;exitDy=0;entryX=1;entryY=0.5;entryDx=0;entryDy=0;fillColor=#dae8fc;strokeColor=#6c8ebf;" edge="1" parent="WIyWlLk6GJQsqaUBKTNV-1" source="_ZYvlDvBcddFAeTX4_bz-35" target="_ZYvlDvBcddFAeTX4_bz-48">
          <mxGeometry width="160" relative="1" as="geometry">
            <mxPoint x="-400" y="100" as="sourcePoint" />
            <mxPoint x="-240" y="100" as="targetPoint" />
          </mxGeometry>
        </mxCell>
        <mxCell id="_ZYvlDvBcddFAeTX4_bz-68" value="&lt;font style=&quot;font-size: 21px&quot;&gt;Bridge&lt;/font&gt;" style="html=1;fillColor=#dae8fc;strokeColor=#6c8ebf;" vertex="1" parent="WIyWlLk6GJQsqaUBKTNV-1">
          <mxGeometry x="-340" y="-270" width="110" height="50" as="geometry" />
        </mxCell>
        <mxCell id="_ZYvlDvBcddFAeTX4_bz-69" value="Bridge" style="shape=umlFrame;whiteSpace=wrap;html=1;" vertex="1" parent="WIyWlLk6GJQsqaUBKTNV-1">
          <mxGeometry x="-730" y="-290" width="910" height="780" as="geometry" />
        </mxCell>
        <mxCell id="_ZYvlDvBcddFAeTX4_bz-70" value="AvstractCar" style="swimlane;fontStyle=1;align=center;verticalAlign=top;childLayout=stackLayout;horizontal=1;startSize=26;horizontalStack=0;resizeParent=1;resizeParentMax=0;resizeLast=0;collapsible=1;marginBottom=0;fillColor=#ffe6cc;strokeColor=#d79b00;" vertex="1" parent="WIyWlLk6GJQsqaUBKTNV-1">
          <mxGeometry x="-1080" y="14" width="160" height="90" as="geometry" />
        </mxCell>
        <mxCell id="_ZYvlDvBcddFAeTX4_bz-72" value="" style="line;strokeWidth=1;fillColor=#ffe6cc;align=left;verticalAlign=middle;spacingTop=-1;spacingLeft=3;spacingRight=3;rotatable=0;labelPosition=right;points=[];portConstraint=eastwest;strokeColor=#d79b00;" vertex="1" parent="_ZYvlDvBcddFAeTX4_bz-70">
          <mxGeometry y="26" width="160" height="8" as="geometry" />
        </mxCell>
        <mxCell id="_ZYvlDvBcddFAeTX4_bz-73" value="+ add_option(option)&#xa;+ paint_color(color)&#xa;+ save_config(nameconfig)" style="text;strokeColor=#d79b00;fillColor=#ffe6cc;align=left;verticalAlign=top;spacingLeft=4;spacingRight=4;overflow=hidden;rotatable=0;points=[[0,0.5],[1,0.5]];portConstraint=eastwest;" vertex="1" parent="_ZYvlDvBcddFAeTX4_bz-70">
          <mxGeometry y="34" width="160" height="56" as="geometry" />
        </mxCell>
        <mxCell id="_ZYvlDvBcddFAeTX4_bz-74" value="Car" style="swimlane;fontStyle=1;align=center;verticalAlign=top;childLayout=stackLayout;horizontal=1;startSize=26;horizontalStack=0;resizeParent=1;resizeParentMax=0;resizeLast=0;collapsible=1;marginBottom=0;fillColor=#ffe6cc;strokeColor=#d79b00;" vertex="1" parent="WIyWlLk6GJQsqaUBKTNV-1">
          <mxGeometry x="-940" y="160" width="160" height="100" as="geometry" />
        </mxCell>
        <mxCell id="_ZYvlDvBcddFAeTX4_bz-75" value="" style="line;strokeWidth=1;fillColor=#ffe6cc;align=left;verticalAlign=middle;spacingTop=-1;spacingLeft=3;spacingRight=3;rotatable=0;labelPosition=right;points=[];portConstraint=eastwest;strokeColor=#d79b00;" vertex="1" parent="_ZYvlDvBcddFAeTX4_bz-74">
          <mxGeometry y="26" width="160" height="8" as="geometry" />
        </mxCell>
        <mxCell id="_ZYvlDvBcddFAeTX4_bz-76" value="- init(name)&#xa;+ add_option(option)&#xa;+ paint_color(color)&#xa;+ save_config(nameconfig)" style="text;strokeColor=#d79b00;fillColor=#ffe6cc;align=left;verticalAlign=top;spacingLeft=4;spacingRight=4;overflow=hidden;rotatable=0;points=[[0,0.5],[1,0.5]];portConstraint=eastwest;" vertex="1" parent="_ZYvlDvBcddFAeTX4_bz-74">
          <mxGeometry y="34" width="160" height="66" as="geometry" />
        </mxCell>
        <mxCell id="_ZYvlDvBcddFAeTX4_bz-77" value="CarProxy" style="swimlane;fontStyle=1;align=center;verticalAlign=top;childLayout=stackLayout;horizontal=1;startSize=26;horizontalStack=0;resizeParent=1;resizeParentMax=0;resizeLast=0;collapsible=1;marginBottom=0;fillColor=#ffe6cc;strokeColor=#d79b00;" vertex="1" parent="WIyWlLk6GJQsqaUBKTNV-1">
          <mxGeometry x="-1250" y="160" width="160" height="100" as="geometry" />
        </mxCell>
        <mxCell id="_ZYvlDvBcddFAeTX4_bz-78" value="" style="line;strokeWidth=1;fillColor=#ffe6cc;align=left;verticalAlign=middle;spacingTop=-1;spacingLeft=3;spacingRight=3;rotatable=0;labelPosition=right;points=[];portConstraint=eastwest;strokeColor=#d79b00;" vertex="1" parent="_ZYvlDvBcddFAeTX4_bz-77">
          <mxGeometry y="26" width="160" height="8" as="geometry" />
        </mxCell>
        <mxCell id="_ZYvlDvBcddFAeTX4_bz-79" value="- init(name)&#xa;+ add_option(option)&#xa;+ paint_color(color)&#xa;+ save_config(nameconfig)" style="text;strokeColor=#d79b00;fillColor=#ffe6cc;align=left;verticalAlign=top;spacingLeft=4;spacingRight=4;overflow=hidden;rotatable=0;points=[[0,0.5],[1,0.5]];portConstraint=eastwest;" vertex="1" parent="_ZYvlDvBcddFAeTX4_bz-77">
          <mxGeometry y="34" width="160" height="66" as="geometry" />
        </mxCell>
        <mxCell id="_ZYvlDvBcddFAeTX4_bz-80" value="Extends" style="endArrow=block;endSize=16;endFill=0;html=1;exitX=0.5;exitY=0;exitDx=0;exitDy=0;entryX=0.495;entryY=1.004;entryDx=0;entryDy=0;entryPerimeter=0;fillColor=#ffe6cc;strokeColor=#d79b00;" edge="1" parent="WIyWlLk6GJQsqaUBKTNV-1" source="_ZYvlDvBcddFAeTX4_bz-74" target="_ZYvlDvBcddFAeTX4_bz-73">
          <mxGeometry width="160" relative="1" as="geometry">
            <mxPoint x="-1010" y="120" as="sourcePoint" />
            <mxPoint x="-850" y="120" as="targetPoint" />
            <Array as="points">
              <mxPoint x="-860" y="130" />
              <mxPoint x="-1001" y="130" />
            </Array>
          </mxGeometry>
        </mxCell>
        <mxCell id="_ZYvlDvBcddFAeTX4_bz-81" value="Extends" style="endArrow=block;endSize=16;endFill=0;html=1;exitX=0.5;exitY=0;exitDx=0;exitDy=0;fillColor=#ffe6cc;strokeColor=#d79b00;" edge="1" parent="WIyWlLk6GJQsqaUBKTNV-1" source="_ZYvlDvBcddFAeTX4_bz-77" target="_ZYvlDvBcddFAeTX4_bz-73">
          <mxGeometry width="160" relative="1" as="geometry">
            <mxPoint x="-1010" y="120" as="sourcePoint" />
            <mxPoint x="-850" y="120" as="targetPoint" />
            <Array as="points">
              <mxPoint x="-1170" y="130" />
              <mxPoint x="-1000" y="130" />
            </Array>
          </mxGeometry>
        </mxCell>
        <mxCell id="_ZYvlDvBcddFAeTX4_bz-83" style="edgeStyle=orthogonalEdgeStyle;rounded=0;orthogonalLoop=1;jettySize=auto;html=1;entryX=0.5;entryY=0;entryDx=0;entryDy=0;fillColor=#ffe6cc;strokeColor=#d79b00;" edge="1" parent="WIyWlLk6GJQsqaUBKTNV-1" source="_ZYvlDvBcddFAeTX4_bz-82" target="_ZYvlDvBcddFAeTX4_bz-70">
          <mxGeometry relative="1" as="geometry" />
        </mxCell>
        <mxCell id="_ZYvlDvBcddFAeTX4_bz-82" value="User" style="html=1;fillColor=#ffe6cc;strokeColor=#d79b00;" vertex="1" parent="WIyWlLk6GJQsqaUBKTNV-1">
          <mxGeometry x="-1055" y="-150" width="110" height="50" as="geometry" />
        </mxCell>
        <mxCell id="_ZYvlDvBcddFAeTX4_bz-84" value="&lt;font style=&quot;font-size: 20px&quot;&gt;Proxy&lt;/font&gt;" style="html=1;fillColor=#ffe6cc;strokeColor=#d79b00;" vertex="1" parent="WIyWlLk6GJQsqaUBKTNV-1">
          <mxGeometry x="-1055" y="-260" width="110" height="50" as="geometry" />
        </mxCell>
        <mxCell id="_ZYvlDvBcddFAeTX4_bz-85" value="Proxy" style="shape=umlFrame;whiteSpace=wrap;html=1;" vertex="1" parent="WIyWlLk6GJQsqaUBKTNV-1">
          <mxGeometry x="-1270" y="-290" width="510" height="780" as="geometry" />
        </mxCell>
        <mxCell id="_ZYvlDvBcddFAeTX4_bz-86" value="AbstractCar" style="swimlane;fontStyle=1;align=center;verticalAlign=top;childLayout=stackLayout;horizontal=1;startSize=26;horizontalStack=0;resizeParent=1;resizeParentMax=0;resizeLast=0;collapsible=1;marginBottom=0;fillColor=#fff2cc;strokeColor=#d6b656;" vertex="1" parent="WIyWlLk6GJQsqaUBKTNV-1">
          <mxGeometry x="-1570" y="14" width="160" height="100" as="geometry" />
        </mxCell>
        <mxCell id="_ZYvlDvBcddFAeTX4_bz-88" value="" style="line;strokeWidth=1;fillColor=#fff2cc;align=left;verticalAlign=middle;spacingTop=-1;spacingLeft=3;spacingRight=3;rotatable=0;labelPosition=right;points=[];portConstraint=eastwest;strokeColor=#d6b656;" vertex="1" parent="_ZYvlDvBcddFAeTX4_bz-86">
          <mxGeometry y="26" width="160" height="8" as="geometry" />
        </mxCell>
        <mxCell id="_ZYvlDvBcddFAeTX4_bz-89" value="+ template_method()&#xa;+ engine()&#xa;+ power()&#xa;+ coast()" style="text;strokeColor=#d6b656;fillColor=#fff2cc;align=left;verticalAlign=top;spacingLeft=4;spacingRight=4;overflow=hidden;rotatable=0;points=[[0,0.5],[1,0.5]];portConstraint=eastwest;" vertex="1" parent="_ZYvlDvBcddFAeTX4_bz-86">
          <mxGeometry y="34" width="160" height="66" as="geometry" />
        </mxCell>
        <mxCell id="_ZYvlDvBcddFAeTX4_bz-91" value="CarObject" style="swimlane;fontStyle=1;align=center;verticalAlign=top;childLayout=stackLayout;horizontal=1;startSize=26;horizontalStack=0;resizeParent=1;resizeParentMax=0;resizeLast=0;collapsible=1;marginBottom=0;fillColor=#fff2cc;strokeColor=#d6b656;" vertex="1" parent="WIyWlLk6GJQsqaUBKTNV-1">
          <mxGeometry x="-1570" y="190" width="160" height="100" as="geometry" />
        </mxCell>
        <mxCell id="_ZYvlDvBcddFAeTX4_bz-92" value="" style="line;strokeWidth=1;fillColor=#fff2cc;align=left;verticalAlign=middle;spacingTop=-1;spacingLeft=3;spacingRight=3;rotatable=0;labelPosition=right;points=[];portConstraint=eastwest;strokeColor=#d6b656;" vertex="1" parent="_ZYvlDvBcddFAeTX4_bz-91">
          <mxGeometry y="26" width="160" height="8" as="geometry" />
        </mxCell>
        <mxCell id="_ZYvlDvBcddFAeTX4_bz-93" value="+ engine()&#xa;+ power()&#xa;+ coast()" style="text;strokeColor=#d6b656;fillColor=#fff2cc;align=left;verticalAlign=top;spacingLeft=4;spacingRight=4;overflow=hidden;rotatable=0;points=[[0,0.5],[1,0.5]];portConstraint=eastwest;" vertex="1" parent="_ZYvlDvBcddFAeTX4_bz-91">
          <mxGeometry y="34" width="160" height="66" as="geometry" />
        </mxCell>
        <mxCell id="_ZYvlDvBcddFAeTX4_bz-95" style="edgeStyle=orthogonalEdgeStyle;rounded=0;orthogonalLoop=1;jettySize=auto;html=1;entryX=0.5;entryY=0;entryDx=0;entryDy=0;fillColor=#fff2cc;strokeColor=#d6b656;" edge="1" parent="WIyWlLk6GJQsqaUBKTNV-1" source="_ZYvlDvBcddFAeTX4_bz-94" target="_ZYvlDvBcddFAeTX4_bz-86">
          <mxGeometry relative="1" as="geometry" />
        </mxCell>
        <mxCell id="_ZYvlDvBcddFAeTX4_bz-94" value="User" style="html=1;fillColor=#fff2cc;strokeColor=#d6b656;" vertex="1" parent="WIyWlLk6GJQsqaUBKTNV-1">
          <mxGeometry x="-1545" y="-120" width="110" height="50" as="geometry" />
        </mxCell>
        <mxCell id="_ZYvlDvBcddFAeTX4_bz-96" value="Extends" style="endArrow=block;endSize=16;endFill=0;html=1;exitX=0.5;exitY=0;exitDx=0;exitDy=0;fillColor=#fff2cc;strokeColor=#d6b656;" edge="1" parent="WIyWlLk6GJQsqaUBKTNV-1" source="_ZYvlDvBcddFAeTX4_bz-91">
          <mxGeometry width="160" relative="1" as="geometry">
            <mxPoint x="-1640" y="149.41" as="sourcePoint" />
            <mxPoint x="-1490" y="120" as="targetPoint" />
          </mxGeometry>
        </mxCell>
        <mxCell id="_ZYvlDvBcddFAeTX4_bz-97" value="&lt;font style=&quot;font-size: 20px&quot;&gt;Template Method&lt;/font&gt;" style="html=1;fillColor=#fff2cc;strokeColor=#d6b656;" vertex="1" parent="WIyWlLk6GJQsqaUBKTNV-1">
          <mxGeometry x="-1578" y="-260" width="176" height="50" as="geometry" />
        </mxCell>
        <mxCell id="_ZYvlDvBcddFAeTX4_bz-98" value="Template Method" style="shape=umlFrame;whiteSpace=wrap;html=1;width=130;height=20;" vertex="1" parent="WIyWlLk6GJQsqaUBKTNV-1">
          <mxGeometry x="-1640" y="-290" width="290" height="780" as="geometry" />
        </mxCell>
        <mxCell id="_ZYvlDvBcddFAeTX4_bz-124" value="Glovo" style="swimlane;fontStyle=1;align=center;verticalAlign=top;childLayout=stackLayout;horizontal=1;startSize=26;horizontalStack=0;resizeParent=1;resizeParentMax=0;resizeLast=0;collapsible=1;marginBottom=0;fillColor=#fff2cc;strokeColor=#d6b656;" vertex="1" parent="WIyWlLk6GJQsqaUBKTNV-1">
          <mxGeometry x="-1090" y="900" width="160" height="70" as="geometry" />
        </mxCell>
        <mxCell id="_ZYvlDvBcddFAeTX4_bz-125" value="" style="line;strokeWidth=1;fillColor=#fff2cc;align=left;verticalAlign=middle;spacingTop=-1;spacingLeft=3;spacingRight=3;rotatable=0;labelPosition=right;points=[];portConstraint=eastwest;strokeColor=#d6b656;" vertex="1" parent="_ZYvlDvBcddFAeTX4_bz-124">
          <mxGeometry y="26" width="160" height="8" as="geometry" />
        </mxCell>
        <mxCell id="_ZYvlDvBcddFAeTX4_bz-126" value=" - init()&#xa;+ order_food()" style="text;strokeColor=#d6b656;fillColor=#fff2cc;align=left;verticalAlign=top;spacingLeft=4;spacingRight=4;overflow=hidden;rotatable=0;points=[[0,0.5],[1,0.5]];portConstraint=eastwest;" vertex="1" parent="_ZYvlDvBcddFAeTX4_bz-124">
          <mxGeometry y="34" width="160" height="36" as="geometry" />
        </mxCell>
        <mxCell id="_ZYvlDvBcddFAeTX4_bz-127" value="SendOrder" style="swimlane;fontStyle=1;align=center;verticalAlign=top;childLayout=stackLayout;horizontal=1;startSize=26;horizontalStack=0;resizeParent=1;resizeParentMax=0;resizeLast=0;collapsible=1;marginBottom=0;fillColor=#fff2cc;strokeColor=#d6b656;" vertex="1" parent="WIyWlLk6GJQsqaUBKTNV-1">
          <mxGeometry x="-1275" y="1040" width="120" height="60" as="geometry" />
        </mxCell>
        <mxCell id="_ZYvlDvBcddFAeTX4_bz-128" value="" style="line;strokeWidth=1;fillColor=#fff2cc;align=left;verticalAlign=middle;spacingTop=-1;spacingLeft=3;spacingRight=3;rotatable=0;labelPosition=right;points=[];portConstraint=eastwest;strokeColor=#d6b656;" vertex="1" parent="_ZYvlDvBcddFAeTX4_bz-127">
          <mxGeometry y="26" width="120" height="8" as="geometry" />
        </mxCell>
        <mxCell id="_ZYvlDvBcddFAeTX4_bz-129" value="+ send_order()" style="text;strokeColor=#d6b656;fillColor=#fff2cc;align=left;verticalAlign=top;spacingLeft=4;spacingRight=4;overflow=hidden;rotatable=0;points=[[0,0.5],[1,0.5]];portConstraint=eastwest;" vertex="1" parent="_ZYvlDvBcddFAeTX4_bz-127">
          <mxGeometry y="34" width="120" height="26" as="geometry" />
        </mxCell>
        <mxCell id="_ZYvlDvBcddFAeTX4_bz-130" value="CookOrder" style="swimlane;fontStyle=1;align=center;verticalAlign=top;childLayout=stackLayout;horizontal=1;startSize=26;horizontalStack=0;resizeParent=1;resizeParentMax=0;resizeLast=0;collapsible=1;marginBottom=0;fillColor=#fff2cc;strokeColor=#d6b656;" vertex="1" parent="WIyWlLk6GJQsqaUBKTNV-1">
          <mxGeometry x="-1145" y="1040" width="120" height="60" as="geometry" />
        </mxCell>
        <mxCell id="_ZYvlDvBcddFAeTX4_bz-131" value="" style="line;strokeWidth=1;fillColor=#fff2cc;align=left;verticalAlign=middle;spacingTop=-1;spacingLeft=3;spacingRight=3;rotatable=0;labelPosition=right;points=[];portConstraint=eastwest;strokeColor=#d6b656;" vertex="1" parent="_ZYvlDvBcddFAeTX4_bz-130">
          <mxGeometry y="26" width="120" height="8" as="geometry" />
        </mxCell>
        <mxCell id="_ZYvlDvBcddFAeTX4_bz-132" value="+ cook_order()" style="text;strokeColor=#d6b656;fillColor=#fff2cc;align=left;verticalAlign=top;spacingLeft=4;spacingRight=4;overflow=hidden;rotatable=0;points=[[0,0.5],[1,0.5]];portConstraint=eastwest;" vertex="1" parent="_ZYvlDvBcddFAeTX4_bz-130">
          <mxGeometry y="34" width="120" height="26" as="geometry" />
        </mxCell>
        <mxCell id="_ZYvlDvBcddFAeTX4_bz-133" value="Delivery" style="swimlane;fontStyle=1;align=center;verticalAlign=top;childLayout=stackLayout;horizontal=1;startSize=26;horizontalStack=0;resizeParent=1;resizeParentMax=0;resizeLast=0;collapsible=1;marginBottom=0;fillColor=#fff2cc;strokeColor=#d6b656;" vertex="1" parent="WIyWlLk6GJQsqaUBKTNV-1">
          <mxGeometry x="-1015" y="1040" width="120" height="60" as="geometry" />
        </mxCell>
        <mxCell id="_ZYvlDvBcddFAeTX4_bz-134" value="" style="line;strokeWidth=1;fillColor=#fff2cc;align=left;verticalAlign=middle;spacingTop=-1;spacingLeft=3;spacingRight=3;rotatable=0;labelPosition=right;points=[];portConstraint=eastwest;strokeColor=#d6b656;" vertex="1" parent="_ZYvlDvBcddFAeTX4_bz-133">
          <mxGeometry y="26" width="120" height="8" as="geometry" />
        </mxCell>
        <mxCell id="_ZYvlDvBcddFAeTX4_bz-135" value="+ delivery()" style="text;strokeColor=#d6b656;fillColor=#fff2cc;align=left;verticalAlign=top;spacingLeft=4;spacingRight=4;overflow=hidden;rotatable=0;points=[[0,0.5],[1,0.5]];portConstraint=eastwest;" vertex="1" parent="_ZYvlDvBcddFAeTX4_bz-133">
          <mxGeometry y="34" width="120" height="26" as="geometry" />
        </mxCell>
        <mxCell id="_ZYvlDvBcddFAeTX4_bz-136" value="DeliveryOrder" style="swimlane;fontStyle=1;align=center;verticalAlign=top;childLayout=stackLayout;horizontal=1;startSize=26;horizontalStack=0;resizeParent=1;resizeParentMax=0;resizeLast=0;collapsible=1;marginBottom=0;fillColor=#fff2cc;strokeColor=#d6b656;" vertex="1" parent="WIyWlLk6GJQsqaUBKTNV-1">
          <mxGeometry x="-885" y="1040" width="120" height="60" as="geometry" />
        </mxCell>
        <mxCell id="_ZYvlDvBcddFAeTX4_bz-137" value="" style="line;strokeWidth=1;fillColor=#fff2cc;align=left;verticalAlign=middle;spacingTop=-1;spacingLeft=3;spacingRight=3;rotatable=0;labelPosition=right;points=[];portConstraint=eastwest;strokeColor=#d6b656;" vertex="1" parent="_ZYvlDvBcddFAeTX4_bz-136">
          <mxGeometry y="26" width="120" height="8" as="geometry" />
        </mxCell>
        <mxCell id="_ZYvlDvBcddFAeTX4_bz-138" value="+ delivery_order()" style="text;strokeColor=#d6b656;fillColor=#fff2cc;align=left;verticalAlign=top;spacingLeft=4;spacingRight=4;overflow=hidden;rotatable=0;points=[[0,0.5],[1,0.5]];portConstraint=eastwest;" vertex="1" parent="_ZYvlDvBcddFAeTX4_bz-136">
          <mxGeometry y="34" width="120" height="26" as="geometry" />
        </mxCell>
        <mxCell id="_ZYvlDvBcddFAeTX4_bz-139" value="Use" style="endArrow=open;endSize=12;dashed=1;html=1;exitX=0.504;exitY=1.051;exitDx=0;exitDy=0;exitPerimeter=0;entryX=0.5;entryY=0;entryDx=0;entryDy=0;fillColor=#fff2cc;strokeColor=#d6b656;" edge="1" parent="WIyWlLk6GJQsqaUBKTNV-1" source="_ZYvlDvBcddFAeTX4_bz-126" target="_ZYvlDvBcddFAeTX4_bz-136">
          <mxGeometry width="160" relative="1" as="geometry">
            <mxPoint x="-945" y="1090" as="sourcePoint" />
            <mxPoint x="-785" y="1090" as="targetPoint" />
            <Array as="points">
              <mxPoint x="-1009" y="1000" />
              <mxPoint x="-825" y="1000" />
            </Array>
          </mxGeometry>
        </mxCell>
        <mxCell id="_ZYvlDvBcddFAeTX4_bz-140" value="Use" style="endArrow=open;endSize=12;dashed=1;html=1;entryX=0.5;entryY=0;entryDx=0;entryDy=0;fillColor=#fff2cc;strokeColor=#d6b656;" edge="1" parent="WIyWlLk6GJQsqaUBKTNV-1" target="_ZYvlDvBcddFAeTX4_bz-133">
          <mxGeometry width="160" relative="1" as="geometry">
            <mxPoint x="-1010" y="969" as="sourcePoint" />
            <mxPoint x="-815" y="1050" as="targetPoint" />
            <Array as="points">
              <mxPoint x="-1010" y="1000" />
              <mxPoint x="-955" y="1000" />
            </Array>
          </mxGeometry>
        </mxCell>
        <mxCell id="_ZYvlDvBcddFAeTX4_bz-141" value="Use" style="endArrow=open;endSize=12;dashed=1;html=1;entryX=0.5;entryY=0;entryDx=0;entryDy=0;exitX=0.501;exitY=1.032;exitDx=0;exitDy=0;exitPerimeter=0;fillColor=#fff2cc;strokeColor=#d6b656;" edge="1" parent="WIyWlLk6GJQsqaUBKTNV-1" source="_ZYvlDvBcddFAeTX4_bz-126" target="_ZYvlDvBcddFAeTX4_bz-130">
          <mxGeometry width="160" relative="1" as="geometry">
            <mxPoint x="-1005" y="970" as="sourcePoint" />
            <mxPoint x="-785" y="1090" as="targetPoint" />
            <Array as="points">
              <mxPoint x="-1010" y="1000" />
              <mxPoint x="-1085" y="1000" />
            </Array>
          </mxGeometry>
        </mxCell>
        <mxCell id="_ZYvlDvBcddFAeTX4_bz-142" value="Use" style="endArrow=open;endSize=12;dashed=1;html=1;entryX=0.5;entryY=0;entryDx=0;entryDy=0;fillColor=#fff2cc;strokeColor=#d6b656;" edge="1" parent="WIyWlLk6GJQsqaUBKTNV-1" source="_ZYvlDvBcddFAeTX4_bz-126" target="_ZYvlDvBcddFAeTX4_bz-127">
          <mxGeometry width="160" relative="1" as="geometry">
            <mxPoint x="-945" y="1090" as="sourcePoint" />
            <mxPoint x="-785" y="1090" as="targetPoint" />
            <Array as="points">
              <mxPoint x="-1010" y="1000" />
              <mxPoint x="-1215" y="1000" />
            </Array>
          </mxGeometry>
        </mxCell>
        <mxCell id="_ZYvlDvBcddFAeTX4_bz-143" style="edgeStyle=orthogonalEdgeStyle;rounded=0;orthogonalLoop=1;jettySize=auto;html=1;entryX=0.5;entryY=0;entryDx=0;entryDy=0;fillColor=#fff2cc;strokeColor=#d6b656;" edge="1" parent="WIyWlLk6GJQsqaUBKTNV-1" source="_ZYvlDvBcddFAeTX4_bz-144" target="_ZYvlDvBcddFAeTX4_bz-124">
          <mxGeometry relative="1" as="geometry" />
        </mxCell>
        <mxCell id="_ZYvlDvBcddFAeTX4_bz-144" value="Client" style="html=1;fillColor=#fff2cc;strokeColor=#d6b656;" vertex="1" parent="WIyWlLk6GJQsqaUBKTNV-1">
          <mxGeometry x="-1065" y="790" width="110" height="50" as="geometry" />
        </mxCell>
        <mxCell id="_ZYvlDvBcddFAeTX4_bz-145" value="Facade" style="shape=umlFrame;whiteSpace=wrap;html=1;" vertex="1" parent="WIyWlLk6GJQsqaUBKTNV-1">
          <mxGeometry x="-1285" y="690" width="540" height="420" as="geometry" />
        </mxCell>
        <mxCell id="_ZYvlDvBcddFAeTX4_bz-146" value="&lt;font style=&quot;font-size: 20px&quot;&gt;Facade&lt;/font&gt;" style="html=1;fillColor=#fff2cc;strokeColor=#d6b656;" vertex="1" parent="WIyWlLk6GJQsqaUBKTNV-1">
          <mxGeometry x="-1065" y="710" width="110" height="50" as="geometry" />
        </mxCell>
        <mxCell id="_ZYvlDvBcddFAeTX4_bz-152" value="Graphic" style="swimlane;fontStyle=3;align=center;verticalAlign=top;childLayout=stackLayout;horizontal=1;startSize=26;horizontalStack=0;resizeParent=1;resizeParentMax=0;resizeLast=0;collapsible=1;marginBottom=0;fillColor=#e1d5e7;strokeColor=#9673a6;" vertex="1" parent="WIyWlLk6GJQsqaUBKTNV-1">
          <mxGeometry x="-350" y="700" width="160" height="90" as="geometry" />
        </mxCell>
        <mxCell id="_ZYvlDvBcddFAeTX4_bz-154" value="" style="line;strokeWidth=1;fillColor=#e1d5e7;align=left;verticalAlign=middle;spacingTop=-1;spacingLeft=3;spacingRight=3;rotatable=0;labelPosition=right;points=[];portConstraint=eastwest;strokeColor=#9673a6;" vertex="1" parent="_ZYvlDvBcddFAeTX4_bz-152">
          <mxGeometry y="26" width="160" height="8" as="geometry" />
        </mxCell>
        <mxCell id="_ZYvlDvBcddFAeTX4_bz-155" value="+ draw()&#xa;+ add(obj)&#xa;+ get_child(index)" style="text;strokeColor=#9673a6;fillColor=#e1d5e7;align=left;verticalAlign=top;spacingLeft=4;spacingRight=4;overflow=hidden;rotatable=0;points=[[0,0.5],[1,0.5]];portConstraint=eastwest;" vertex="1" parent="_ZYvlDvBcddFAeTX4_bz-152">
          <mxGeometry y="34" width="160" height="56" as="geometry" />
        </mxCell>
        <mxCell id="_ZYvlDvBcddFAeTX4_bz-156" value="Line" style="swimlane;fontStyle=1;align=center;verticalAlign=top;childLayout=stackLayout;horizontal=1;startSize=26;horizontalStack=0;resizeParent=1;resizeParentMax=0;resizeLast=0;collapsible=1;marginBottom=0;fillColor=#e1d5e7;strokeColor=#9673a6;" vertex="1" parent="WIyWlLk6GJQsqaUBKTNV-1">
          <mxGeometry x="-560" y="910" width="120" height="60" as="geometry" />
        </mxCell>
        <mxCell id="_ZYvlDvBcddFAeTX4_bz-158" value="" style="line;strokeWidth=1;fillColor=#e1d5e7;align=left;verticalAlign=middle;spacingTop=-1;spacingLeft=3;spacingRight=3;rotatable=0;labelPosition=right;points=[];portConstraint=eastwest;strokeColor=#9673a6;" vertex="1" parent="_ZYvlDvBcddFAeTX4_bz-156">
          <mxGeometry y="26" width="120" height="8" as="geometry" />
        </mxCell>
        <mxCell id="_ZYvlDvBcddFAeTX4_bz-159" value="+ draw()" style="text;strokeColor=#9673a6;fillColor=#e1d5e7;align=left;verticalAlign=top;spacingLeft=4;spacingRight=4;overflow=hidden;rotatable=0;points=[[0,0.5],[1,0.5]];portConstraint=eastwest;" vertex="1" parent="_ZYvlDvBcddFAeTX4_bz-156">
          <mxGeometry y="34" width="120" height="26" as="geometry" />
        </mxCell>
        <mxCell id="_ZYvlDvBcddFAeTX4_bz-163" value="Text" style="swimlane;fontStyle=1;align=center;verticalAlign=top;childLayout=stackLayout;horizontal=1;startSize=26;horizontalStack=0;resizeParent=1;resizeParentMax=0;resizeLast=0;collapsible=1;marginBottom=0;fillColor=#e1d5e7;strokeColor=#9673a6;" vertex="1" parent="WIyWlLk6GJQsqaUBKTNV-1">
          <mxGeometry x="-260" y="910" width="110" height="60" as="geometry" />
        </mxCell>
        <mxCell id="_ZYvlDvBcddFAeTX4_bz-164" value="" style="line;strokeWidth=1;fillColor=#e1d5e7;align=left;verticalAlign=middle;spacingTop=-1;spacingLeft=3;spacingRight=3;rotatable=0;labelPosition=right;points=[];portConstraint=eastwest;strokeColor=#9673a6;" vertex="1" parent="_ZYvlDvBcddFAeTX4_bz-163">
          <mxGeometry y="26" width="110" height="8" as="geometry" />
        </mxCell>
        <mxCell id="_ZYvlDvBcddFAeTX4_bz-165" value="+ draw()" style="text;strokeColor=#9673a6;fillColor=#e1d5e7;align=left;verticalAlign=top;spacingLeft=4;spacingRight=4;overflow=hidden;rotatable=0;points=[[0,0.5],[1,0.5]];portConstraint=eastwest;" vertex="1" parent="_ZYvlDvBcddFAeTX4_bz-163">
          <mxGeometry y="34" width="110" height="26" as="geometry" />
        </mxCell>
        <mxCell id="_ZYvlDvBcddFAeTX4_bz-166" value="Reactangle" style="swimlane;fontStyle=1;align=center;verticalAlign=top;childLayout=stackLayout;horizontal=1;startSize=26;horizontalStack=0;resizeParent=1;resizeParentMax=0;resizeLast=0;collapsible=1;marginBottom=0;fillColor=#e1d5e7;strokeColor=#9673a6;" vertex="1" parent="WIyWlLk6GJQsqaUBKTNV-1">
          <mxGeometry x="-390" y="910" width="110" height="60" as="geometry" />
        </mxCell>
        <mxCell id="_ZYvlDvBcddFAeTX4_bz-167" value="" style="line;strokeWidth=1;fillColor=#e1d5e7;align=left;verticalAlign=middle;spacingTop=-1;spacingLeft=3;spacingRight=3;rotatable=0;labelPosition=right;points=[];portConstraint=eastwest;strokeColor=#9673a6;" vertex="1" parent="_ZYvlDvBcddFAeTX4_bz-166">
          <mxGeometry y="26" width="110" height="8" as="geometry" />
        </mxCell>
        <mxCell id="_ZYvlDvBcddFAeTX4_bz-168" value="+ draw()" style="text;strokeColor=#9673a6;fillColor=#e1d5e7;align=left;verticalAlign=top;spacingLeft=4;spacingRight=4;overflow=hidden;rotatable=0;points=[[0,0.5],[1,0.5]];portConstraint=eastwest;" vertex="1" parent="_ZYvlDvBcddFAeTX4_bz-166">
          <mxGeometry y="34" width="110" height="26" as="geometry" />
        </mxCell>
        <mxCell id="_ZYvlDvBcddFAeTX4_bz-172" value="Picture" style="swimlane;fontStyle=3;align=center;verticalAlign=top;childLayout=stackLayout;horizontal=1;startSize=26;horizontalStack=0;resizeParent=1;resizeParentMax=0;resizeLast=0;collapsible=1;marginBottom=0;fillColor=#e1d5e7;strokeColor=#9673a6;" vertex="1" parent="WIyWlLk6GJQsqaUBKTNV-1">
          <mxGeometry x="-130" y="910" width="160" height="110" as="geometry" />
        </mxCell>
        <mxCell id="_ZYvlDvBcddFAeTX4_bz-173" value="" style="line;strokeWidth=1;fillColor=#e1d5e7;align=left;verticalAlign=middle;spacingTop=-1;spacingLeft=3;spacingRight=3;rotatable=0;labelPosition=right;points=[];portConstraint=eastwest;strokeColor=#9673a6;" vertex="1" parent="_ZYvlDvBcddFAeTX4_bz-172">
          <mxGeometry y="26" width="160" height="8" as="geometry" />
        </mxCell>
        <mxCell id="_ZYvlDvBcddFAeTX4_bz-174" value="- init()&#xa;+ draw()&#xa;+ add(obj)&#xa;+ get_child(index)" style="text;strokeColor=#9673a6;fillColor=#e1d5e7;align=left;verticalAlign=top;spacingLeft=4;spacingRight=4;overflow=hidden;rotatable=0;points=[[0,0.5],[1,0.5]];portConstraint=eastwest;" vertex="1" parent="_ZYvlDvBcddFAeTX4_bz-172">
          <mxGeometry y="34" width="160" height="76" as="geometry" />
        </mxCell>
        <mxCell id="_ZYvlDvBcddFAeTX4_bz-175" value="Extends" style="endArrow=block;endSize=16;endFill=0;html=1;exitX=0.5;exitY=0;exitDx=0;exitDy=0;fillColor=#e1d5e7;strokeColor=#9673a6;" edge="1" parent="WIyWlLk6GJQsqaUBKTNV-1" source="_ZYvlDvBcddFAeTX4_bz-163" target="_ZYvlDvBcddFAeTX4_bz-155">
          <mxGeometry width="160" relative="1" as="geometry">
            <mxPoint x="-470" y="850" as="sourcePoint" />
            <mxPoint x="-310" y="850" as="targetPoint" />
            <Array as="points">
              <mxPoint x="-205" y="860" />
              <mxPoint x="-270" y="860" />
            </Array>
          </mxGeometry>
        </mxCell>
        <mxCell id="_ZYvlDvBcddFAeTX4_bz-176" value="Extends" style="endArrow=block;endSize=16;endFill=0;html=1;exitX=0.5;exitY=0;exitDx=0;exitDy=0;fillColor=#e1d5e7;strokeColor=#9673a6;" edge="1" parent="WIyWlLk6GJQsqaUBKTNV-1" source="_ZYvlDvBcddFAeTX4_bz-156" target="_ZYvlDvBcddFAeTX4_bz-155">
          <mxGeometry width="160" relative="1" as="geometry">
            <mxPoint x="-470" y="850" as="sourcePoint" />
            <mxPoint x="-310" y="850" as="targetPoint" />
            <Array as="points">
              <mxPoint x="-500" y="860" />
              <mxPoint x="-270" y="860" />
            </Array>
          </mxGeometry>
        </mxCell>
        <mxCell id="_ZYvlDvBcddFAeTX4_bz-177" value="Extends" style="endArrow=block;endSize=16;endFill=0;html=1;exitX=0.5;exitY=0;exitDx=0;exitDy=0;fillColor=#e1d5e7;strokeColor=#9673a6;" edge="1" parent="WIyWlLk6GJQsqaUBKTNV-1" source="_ZYvlDvBcddFAeTX4_bz-166" target="_ZYvlDvBcddFAeTX4_bz-155">
          <mxGeometry width="160" relative="1" as="geometry">
            <mxPoint x="-470" y="850" as="sourcePoint" />
            <mxPoint x="-310" y="850" as="targetPoint" />
            <Array as="points">
              <mxPoint x="-335" y="860" />
              <mxPoint x="-270" y="860" />
            </Array>
          </mxGeometry>
        </mxCell>
        <mxCell id="_ZYvlDvBcddFAeTX4_bz-178" value="Extends" style="endArrow=block;endSize=16;endFill=0;html=1;exitX=0.5;exitY=0;exitDx=0;exitDy=0;entryX=0.5;entryY=0.976;entryDx=0;entryDy=0;entryPerimeter=0;fillColor=#e1d5e7;strokeColor=#9673a6;" edge="1" parent="WIyWlLk6GJQsqaUBKTNV-1" source="_ZYvlDvBcddFAeTX4_bz-172" target="_ZYvlDvBcddFAeTX4_bz-155">
          <mxGeometry width="160" relative="1" as="geometry">
            <mxPoint x="-470" y="850" as="sourcePoint" />
            <mxPoint x="-267" y="789" as="targetPoint" />
            <Array as="points">
              <mxPoint x="-50" y="860" />
              <mxPoint x="-270" y="860" />
            </Array>
          </mxGeometry>
        </mxCell>
        <mxCell id="_ZYvlDvBcddFAeTX4_bz-180" style="edgeStyle=orthogonalEdgeStyle;rounded=0;orthogonalLoop=1;jettySize=auto;html=1;entryX=0.5;entryY=0;entryDx=0;entryDy=0;fillColor=#e1d5e7;strokeColor=#9673a6;" edge="1" parent="WIyWlLk6GJQsqaUBKTNV-1" source="_ZYvlDvBcddFAeTX4_bz-179" target="_ZYvlDvBcddFAeTX4_bz-152">
          <mxGeometry relative="1" as="geometry" />
        </mxCell>
        <mxCell id="_ZYvlDvBcddFAeTX4_bz-179" value="USER" style="html=1;fillColor=#e1d5e7;strokeColor=#9673a6;" vertex="1" parent="WIyWlLk6GJQsqaUBKTNV-1">
          <mxGeometry x="-325" y="580" width="110" height="50" as="geometry" />
        </mxCell>
        <mxCell id="_ZYvlDvBcddFAeTX4_bz-181" value="frame" style="shape=umlFrame;whiteSpace=wrap;html=1;" vertex="1" parent="WIyWlLk6GJQsqaUBKTNV-1">
          <mxGeometry x="-620" y="500" width="710" height="550" as="geometry" />
        </mxCell>
        <mxCell id="_ZYvlDvBcddFAeTX4_bz-182" value="&lt;font style=&quot;font-size: 20px&quot;&gt;Composite&lt;/font&gt;" style="html=1;fillColor=#e1d5e7;strokeColor=#9673a6;" vertex="1" parent="WIyWlLk6GJQsqaUBKTNV-1">
          <mxGeometry x="-325" y="500" width="110" height="50" as="geometry" />
        </mxCell>
        <mxCell id="_ZYvlDvBcddFAeTX4_bz-183" value="AbstractCar" style="swimlane;fontStyle=3;align=center;verticalAlign=top;childLayout=stackLayout;horizontal=1;startSize=26;horizontalStack=0;resizeParent=1;resizeParentMax=0;resizeLast=0;collapsible=1;marginBottom=0;fillColor=#fff2cc;strokeColor=#d6b656;" vertex="1" parent="WIyWlLk6GJQsqaUBKTNV-1">
          <mxGeometry x="410" y="590" width="160" height="90" as="geometry" />
        </mxCell>
        <mxCell id="_ZYvlDvBcddFAeTX4_bz-185" value="" style="line;strokeWidth=1;fillColor=#fff2cc;align=left;verticalAlign=middle;spacingTop=-1;spacingLeft=3;spacingRight=3;rotatable=0;labelPosition=right;points=[];portConstraint=eastwest;strokeColor=#d6b656;" vertex="1" parent="_ZYvlDvBcddFAeTX4_bz-183">
          <mxGeometry y="26" width="160" height="8" as="geometry" />
        </mxCell>
        <mxCell id="_ZYvlDvBcddFAeTX4_bz-186" value="+ get_coast()&#xa;+ get_power()&#xa;+ get_weight()" style="text;strokeColor=#d6b656;fillColor=#fff2cc;align=left;verticalAlign=top;spacingLeft=4;spacingRight=4;overflow=hidden;rotatable=0;points=[[0,0.5],[1,0.5]];portConstraint=eastwest;" vertex="1" parent="_ZYvlDvBcddFAeTX4_bz-183">
          <mxGeometry y="34" width="160" height="56" as="geometry" />
        </mxCell>
        <mxCell id="_ZYvlDvBcddFAeTX4_bz-187" value="Car" style="swimlane;fontStyle=1;align=center;verticalAlign=top;childLayout=stackLayout;horizontal=1;startSize=26;horizontalStack=0;resizeParent=1;resizeParentMax=0;resizeLast=0;collapsible=1;marginBottom=0;fillColor=#fff2cc;strokeColor=#d6b656;" vertex="1" parent="WIyWlLk6GJQsqaUBKTNV-1">
          <mxGeometry x="600" y="770" width="160" height="90" as="geometry" />
        </mxCell>
        <mxCell id="_ZYvlDvBcddFAeTX4_bz-188" value="" style="line;strokeWidth=1;fillColor=#fff2cc;align=left;verticalAlign=middle;spacingTop=-1;spacingLeft=3;spacingRight=3;rotatable=0;labelPosition=right;points=[];portConstraint=eastwest;strokeColor=#d6b656;" vertex="1" parent="_ZYvlDvBcddFAeTX4_bz-187">
          <mxGeometry y="26" width="160" height="8" as="geometry" />
        </mxCell>
        <mxCell id="_ZYvlDvBcddFAeTX4_bz-189" value="+ get_coast()&#xa;+ get_power()&#xa;+ get_weight()" style="text;strokeColor=#d6b656;fillColor=#fff2cc;align=left;verticalAlign=top;spacingLeft=4;spacingRight=4;overflow=hidden;rotatable=0;points=[[0,0.5],[1,0.5]];portConstraint=eastwest;" vertex="1" parent="_ZYvlDvBcddFAeTX4_bz-187">
          <mxGeometry y="34" width="160" height="56" as="geometry" />
        </mxCell>
        <mxCell id="_ZYvlDvBcddFAeTX4_bz-190" value="AbstractCarDecorator" style="swimlane;fontStyle=1;align=center;verticalAlign=top;childLayout=stackLayout;horizontal=1;startSize=26;horizontalStack=0;resizeParent=1;resizeParentMax=0;resizeLast=0;collapsible=1;marginBottom=0;fillColor=#fff2cc;strokeColor=#d6b656;" vertex="1" parent="WIyWlLk6GJQsqaUBKTNV-1">
          <mxGeometry x="290" y="770" width="160" height="110" as="geometry" />
        </mxCell>
        <mxCell id="_ZYvlDvBcddFAeTX4_bz-191" value="" style="line;strokeWidth=1;fillColor=#fff2cc;align=left;verticalAlign=middle;spacingTop=-1;spacingLeft=3;spacingRight=3;rotatable=0;labelPosition=right;points=[];portConstraint=eastwest;strokeColor=#d6b656;" vertex="1" parent="_ZYvlDvBcddFAeTX4_bz-190">
          <mxGeometry y="26" width="160" height="8" as="geometry" />
        </mxCell>
        <mxCell id="_ZYvlDvBcddFAeTX4_bz-192" value="- init(improve)&#xa;+ get_coast()&#xa;+ get_power()&#xa;+ get_weight()" style="text;strokeColor=#d6b656;fillColor=#fff2cc;align=left;verticalAlign=top;spacingLeft=4;spacingRight=4;overflow=hidden;rotatable=0;points=[[0,0.5],[1,0.5]];portConstraint=eastwest;" vertex="1" parent="_ZYvlDvBcddFAeTX4_bz-190">
          <mxGeometry y="34" width="160" height="76" as="geometry" />
        </mxCell>
        <mxCell id="_ZYvlDvBcddFAeTX4_bz-193" value="ImprovePower" style="swimlane;fontStyle=1;align=center;verticalAlign=top;childLayout=stackLayout;horizontal=1;startSize=26;horizontalStack=0;resizeParent=1;resizeParentMax=0;resizeLast=0;collapsible=1;marginBottom=0;fillColor=#fff2cc;strokeColor=#d6b656;" vertex="1" parent="WIyWlLk6GJQsqaUBKTNV-1">
          <mxGeometry x="120" y="960" width="160" height="60" as="geometry" />
        </mxCell>
        <mxCell id="_ZYvlDvBcddFAeTX4_bz-195" value="" style="line;strokeWidth=1;fillColor=#fff2cc;align=left;verticalAlign=middle;spacingTop=-1;spacingLeft=3;spacingRight=3;rotatable=0;labelPosition=right;points=[];portConstraint=eastwest;strokeColor=#d6b656;" vertex="1" parent="_ZYvlDvBcddFAeTX4_bz-193">
          <mxGeometry y="26" width="160" height="8" as="geometry" />
        </mxCell>
        <mxCell id="_ZYvlDvBcddFAeTX4_bz-196" value="+ get_power()" style="text;strokeColor=#d6b656;fillColor=#fff2cc;align=left;verticalAlign=top;spacingLeft=4;spacingRight=4;overflow=hidden;rotatable=0;points=[[0,0.5],[1,0.5]];portConstraint=eastwest;" vertex="1" parent="_ZYvlDvBcddFAeTX4_bz-193">
          <mxGeometry y="34" width="160" height="26" as="geometry" />
        </mxCell>
        <mxCell id="_ZYvlDvBcddFAeTX4_bz-197" value="ImproveCoast" style="swimlane;fontStyle=1;align=center;verticalAlign=top;childLayout=stackLayout;horizontal=1;startSize=26;horizontalStack=0;resizeParent=1;resizeParentMax=0;resizeLast=0;collapsible=1;marginBottom=0;fillColor=#fff2cc;strokeColor=#d6b656;" vertex="1" parent="WIyWlLk6GJQsqaUBKTNV-1">
          <mxGeometry x="355" y="960" width="160" height="60" as="geometry" />
        </mxCell>
        <mxCell id="_ZYvlDvBcddFAeTX4_bz-198" value="" style="line;strokeWidth=1;fillColor=#fff2cc;align=left;verticalAlign=middle;spacingTop=-1;spacingLeft=3;spacingRight=3;rotatable=0;labelPosition=right;points=[];portConstraint=eastwest;strokeColor=#d6b656;" vertex="1" parent="_ZYvlDvBcddFAeTX4_bz-197">
          <mxGeometry y="26" width="160" height="8" as="geometry" />
        </mxCell>
        <mxCell id="_ZYvlDvBcddFAeTX4_bz-199" value="+ get_coast()" style="text;strokeColor=#d6b656;fillColor=#fff2cc;align=left;verticalAlign=top;spacingLeft=4;spacingRight=4;overflow=hidden;rotatable=0;points=[[0,0.5],[1,0.5]];portConstraint=eastwest;" vertex="1" parent="_ZYvlDvBcddFAeTX4_bz-197">
          <mxGeometry y="34" width="160" height="26" as="geometry" />
        </mxCell>
        <mxCell id="_ZYvlDvBcddFAeTX4_bz-200" value="" style="endArrow=block;endSize=16;endFill=0;html=1;exitX=0.5;exitY=0;exitDx=0;exitDy=0;fillColor=#fff2cc;strokeColor=#d6b656;" edge="1" parent="WIyWlLk6GJQsqaUBKTNV-1" source="_ZYvlDvBcddFAeTX4_bz-193" target="_ZYvlDvBcddFAeTX4_bz-192">
          <mxGeometry width="160" relative="1" as="geometry">
            <mxPoint x="450" y="790" as="sourcePoint" />
            <mxPoint x="610" y="790" as="targetPoint" />
            <Array as="points">
              <mxPoint x="200" y="920" />
              <mxPoint x="370" y="920" />
            </Array>
          </mxGeometry>
        </mxCell>
        <mxCell id="_ZYvlDvBcddFAeTX4_bz-201" value="" style="endArrow=block;endSize=16;endFill=0;html=1;entryX=0.482;entryY=0.989;entryDx=0;entryDy=0;entryPerimeter=0;exitX=0.5;exitY=0;exitDx=0;exitDy=0;fillColor=#fff2cc;strokeColor=#d6b656;" edge="1" parent="WIyWlLk6GJQsqaUBKTNV-1" source="_ZYvlDvBcddFAeTX4_bz-187" target="_ZYvlDvBcddFAeTX4_bz-186">
          <mxGeometry width="160" relative="1" as="geometry">
            <mxPoint x="450" y="790" as="sourcePoint" />
            <mxPoint x="610" y="790" as="targetPoint" />
            <Array as="points">
              <mxPoint x="680" y="730" />
              <mxPoint x="487" y="730" />
            </Array>
          </mxGeometry>
        </mxCell>
        <mxCell id="_ZYvlDvBcddFAeTX4_bz-202" value="Extends" style="endArrow=block;endSize=16;endFill=0;html=1;exitX=0.5;exitY=0;exitDx=0;exitDy=0;fillColor=#fff2cc;strokeColor=#d6b656;" edge="1" parent="WIyWlLk6GJQsqaUBKTNV-1" source="_ZYvlDvBcddFAeTX4_bz-190">
          <mxGeometry width="160" relative="1" as="geometry">
            <mxPoint x="450" y="790" as="sourcePoint" />
            <mxPoint x="488" y="680" as="targetPoint" />
            <Array as="points">
              <mxPoint x="370" y="730" />
              <mxPoint x="488" y="730" />
            </Array>
          </mxGeometry>
        </mxCell>
        <mxCell id="_ZYvlDvBcddFAeTX4_bz-203" value="" style="endArrow=block;endSize=16;endFill=0;html=1;exitX=0.5;exitY=0;exitDx=0;exitDy=0;fillColor=#fff2cc;strokeColor=#d6b656;" edge="1" parent="WIyWlLk6GJQsqaUBKTNV-1" source="_ZYvlDvBcddFAeTX4_bz-197" target="_ZYvlDvBcddFAeTX4_bz-192">
          <mxGeometry width="160" relative="1" as="geometry">
            <mxPoint x="450" y="790" as="sourcePoint" />
            <mxPoint x="610" y="790" as="targetPoint" />
            <Array as="points">
              <mxPoint x="435" y="920" />
              <mxPoint x="370" y="920" />
            </Array>
          </mxGeometry>
        </mxCell>
        <mxCell id="_ZYvlDvBcddFAeTX4_bz-204" value="frame" style="shape=umlFrame;whiteSpace=wrap;html=1;" vertex="1" parent="WIyWlLk6GJQsqaUBKTNV-1">
          <mxGeometry x="110" y="520" width="690" height="510" as="geometry" />
        </mxCell>
        <mxCell id="_ZYvlDvBcddFAeTX4_bz-206" style="edgeStyle=orthogonalEdgeStyle;rounded=0;orthogonalLoop=1;jettySize=auto;html=1;entryX=1.019;entryY=0.33;entryDx=0;entryDy=0;entryPerimeter=0;" edge="1" parent="WIyWlLk6GJQsqaUBKTNV-1" source="_ZYvlDvBcddFAeTX4_bz-205" target="_ZYvlDvBcddFAeTX4_bz-186">
          <mxGeometry relative="1" as="geometry" />
        </mxCell>
        <mxCell id="_ZYvlDvBcddFAeTX4_bz-205" value="USER" style="html=1;fillColor=#fff2cc;strokeColor=#d6b656;" vertex="1" parent="WIyWlLk6GJQsqaUBKTNV-1">
          <mxGeometry x="680" y="616" width="110" height="50" as="geometry" />
        </mxCell>
        <mxCell id="_ZYvlDvBcddFAeTX4_bz-207" value="&lt;font style=&quot;font-size: 20px&quot;&gt;Decorator&lt;/font&gt;" style="html=1;fillColor=#fff2cc;strokeColor=#d6b656;" vertex="1" parent="WIyWlLk6GJQsqaUBKTNV-1">
          <mxGeometry x="440" y="530" width="110" height="50" as="geometry" />
        </mxCell>
      </root>
    </mxGraphModel>
  </diagram>
</mxfile>
